<svg width="176" height="149" viewBox="0 0 176 149" fill="none" xmlns="http://www.w3.org/2000/svg">
<path d="M157.271 65.6118C157.232 65.7117 157.217 65.817 157.228 65.9216C157.239 66.0261 157.276 66.1278 157.337 66.2205C157.397 66.3133 157.48 66.3953 157.58 66.4618C157.681 66.5282 157.796 66.5778 157.92 66.6075C158.045 66.6372 158.175 66.6464 158.304 66.6347C158.433 66.623 158.557 66.5906 158.671 66.5393C158.784 66.488 158.883 66.4189 158.963 66.3361C159.043 66.2533 159.101 66.1584 159.135 66.0571C159.391 65.138 159.753 64.0769 160.064 62.9531C160.113 62.7378 160.057 62.5156 159.906 62.3339C159.784 62.1506 159.595 62.0029 159.364 61.9114C159.113 61.8711 158.853 61.9103 158.637 62.0211C158.421 62.1318 158.266 62.3056 158.204 62.5063C157.841 63.5704 157.604 64.6531 157.271 65.6118Z" fill="#319795"/>
<path d="M134.802 97.8063C134.415 98.0045 134.448 98.6005 134.693 98.9133C134.775 98.9928 134.875 99.0583 134.989 99.1058C135.102 99.1533 135.226 99.182 135.354 99.1901C135.481 99.1982 135.609 99.1855 135.73 99.1529C135.852 99.1203 135.964 99.0683 136.06 99.0001C138.124 97.657 140.043 96.1745 141.798 94.5688C141.956 94.4503 142.056 94.2898 142.079 94.1167C142.103 93.9437 142.049 93.7695 141.927 93.6262L141.732 93.3764C141.519 93.2493 141.255 93.191 140.992 93.2126C140.729 93.2343 140.485 93.3345 140.308 93.4936C138.625 95.0535 136.783 96.4962 134.802 97.8063V97.8063Z" fill="#319795"/>
<path d="M128.454 101.325C126.267 102.361 123.945 103.199 121.531 103.824C121.407 103.857 121.293 103.91 121.195 103.979C121.097 104.048 121.017 104.133 120.96 104.227C120.902 104.322 120.869 104.425 120.862 104.53C120.855 104.635 120.873 104.74 120.917 104.84C120.958 104.94 121.023 105.032 121.108 105.111C121.193 105.191 121.298 105.256 121.414 105.302C121.531 105.348 121.658 105.375 121.788 105.381C121.918 105.386 122.048 105.371 122.171 105.335C124.706 104.684 127.148 103.813 129.454 102.739C129.575 102.685 129.682 102.611 129.768 102.522C129.854 102.434 129.917 102.332 129.953 102.224C129.99 102.115 129.999 102.002 129.98 101.89C129.961 101.779 129.914 101.672 129.843 101.575C129.699 101.394 129.472 101.267 129.212 101.22C128.953 101.173 128.68 101.211 128.454 101.325V101.325Z" fill="#319795"/>
<path d="M114.187 105.226C111.657 105.534 109.095 105.645 106.539 105.557C106.284 105.562 106.041 105.646 105.86 105.792C105.68 105.938 105.576 106.134 105.57 106.341C105.564 106.547 105.657 106.747 105.829 106.9C106.002 107.052 106.24 107.144 106.494 107.157C109.159 107.246 111.828 107.138 114.469 106.833C114.596 106.815 114.718 106.777 114.828 106.72C114.937 106.663 115.031 106.589 115.104 106.502C115.178 106.416 115.229 106.318 115.255 106.215C115.282 106.112 115.282 106.006 115.257 105.903C115.261 105.799 115.219 105.696 115.138 105.615C115.04 105.484 114.899 105.379 114.731 105.31C114.563 105.241 114.375 105.212 114.187 105.226Z" fill="#319795"/>
<path d="M48.2081 126.628C47.7903 126.229 47.2349 126.076 46.9751 126.297L45.5066 127.05C43.8066 127.922 42.0265 128.835 40.2809 129.644C40.1616 129.693 40.0554 129.76 39.9683 129.842C39.8813 129.924 39.8151 130.019 39.7737 130.122C39.7323 130.225 39.7165 130.333 39.7271 130.441C39.7378 130.548 39.7747 130.653 39.8358 130.749C39.8968 130.845 39.9808 130.931 40.0828 131C40.1848 131.07 40.3029 131.122 40.4302 131.155C40.5575 131.187 40.6915 131.198 40.8244 131.189C40.9573 131.179 41.0866 131.148 41.2046 131.097C42.9046 130.225 44.7326 129.374 46.4303 128.503L47.8965 127.751C48.1195 127.634 48.277 127.451 48.3353 127.241C48.3936 127.031 48.3479 126.811 48.2081 126.628V126.628Z" fill="#319795"/>
<path d="M145.122 88.5719C145.041 88.6551 144.982 88.751 144.949 88.8536C144.916 88.9563 144.909 89.0633 144.93 89.168C144.951 89.2727 144.998 89.3727 145.069 89.4617C145.14 89.5508 145.233 89.6268 145.343 89.6851C145.445 89.7509 145.564 89.7986 145.691 89.8253C145.817 89.852 145.95 89.8571 146.079 89.8402C146.208 89.8233 146.332 89.7848 146.442 89.7272C146.552 89.6696 146.646 89.594 146.718 89.5054C148.063 87.7644 149.437 85.9209 150.762 84.0151C150.865 83.8989 150.922 83.7605 150.926 83.6177C150.931 83.475 150.882 83.3346 150.786 83.2147C150.691 83.0923 150.564 83.0656 150.342 82.9171C150.235 82.8649 150.115 82.8313 149.991 82.8184C149.867 82.8055 149.741 82.8136 149.621 82.8423C149.501 82.8709 149.389 82.9194 149.293 82.9847C149.198 83.05 149.12 83.1306 149.064 83.2216C147.91 85.079 146.593 86.867 145.122 88.5719V88.5719Z" fill="#319795"/>
<path d="M63.0575 83.7146C62.0653 81.8261 61.3248 79.8572 60.8484 77.8412C60.8515 77.7363 60.809 77.634 60.7284 77.552C60.6107 77.4249 60.4532 77.3256 60.2722 77.2644C60.0911 77.2032 59.893 77.1823 59.6985 77.2039C59.5708 77.2221 59.4487 77.2607 59.3396 77.3176C59.2305 77.3745 59.1365 77.4484 59.063 77.535C58.9896 77.6216 58.9382 77.7192 58.9119 77.822C58.8856 77.9249 58.885 78.0309 58.9099 78.134C59.3574 80.2859 60.1567 82.3798 61.2868 84.3603C61.3922 84.5502 61.5865 84.6983 61.8269 84.7721C62.0673 84.8458 62.3342 84.8392 62.5688 84.7537C62.8034 84.6682 62.9865 84.5107 63.0779 84.316C63.1693 84.1213 63.1614 83.9052 63.056 83.7153L63.0575 83.7146Z" fill="#319795"/>
<path d="M72.1936 93.7429C72.1457 93.6817 72.0701 93.7205 72.0472 93.5556C70.2434 92.1167 68.5688 90.5754 67.0361 88.9435C66.8701 88.7789 66.6316 88.6731 66.3709 88.6485C66.1102 88.624 65.8477 88.6825 65.6392 88.8117C65.4306 88.941 65.2922 89.1308 65.2534 89.3411C65.2145 89.5513 65.2782 89.7654 65.431 89.9382C67.0264 91.6602 68.7939 93.2731 70.7157 94.7606C70.8077 94.835 70.9171 94.8937 71.0376 94.9333C71.158 94.9729 71.2871 94.9926 71.4171 94.9912C71.5472 94.9898 71.6756 94.9673 71.7948 94.9251C71.914 94.8829 72.0216 94.8218 72.1113 94.7454C72.2352 94.5997 72.3083 94.4296 72.3228 94.2532C72.3373 94.0767 72.2926 93.9004 72.1936 93.7429V93.7429Z" fill="#319795"/>
<path d="M59.2449 118.865C57.3542 120.186 55.337 121.483 53.1934 122.757C52.99 122.891 52.8591 123.085 52.8284 123.296C52.7978 123.507 52.8698 123.719 53.0292 123.888C53.1886 124.057 53.4229 124.169 53.6825 124.2C53.9421 124.231 54.2067 124.179 54.4202 124.055C56.563 122.78 58.6575 121.444 60.5484 120.123C60.7121 119.987 60.8163 119.811 60.845 119.623C60.8736 119.434 60.8252 119.243 60.7072 119.079C60.5334 118.91 60.2917 118.796 60.0244 118.757C59.757 118.718 59.4811 118.756 59.2449 118.865V118.865Z" fill="#319795"/>
<path d="M62.6865 65.5121C60.8235 66.73 59.6459 68.8234 59.0805 71.5631C59.0473 71.7669 59.1139 71.9729 59.2659 72.1373C59.4179 72.3017 59.6434 72.4113 59.8941 72.4428C60.1449 72.4743 60.401 72.4252 60.6078 72.3059C60.8145 72.1866 60.9556 72.0067 61.0008 71.8044C61.4505 69.4713 62.5481 67.6822 63.9435 66.7041C64.1071 66.5677 64.2111 66.3917 64.2395 66.2031C64.268 66.0144 64.2194 65.8235 64.1011 65.6595L64.0532 65.5983C63.9715 65.5189 63.8709 65.4535 63.7575 65.4061C63.644 65.3586 63.52 65.3301 63.3926 65.322C63.2653 65.314 63.1372 65.3267 63.0159 65.3593C62.8947 65.392 62.7827 65.4439 62.6865 65.5121V65.5121Z" fill="#319795"/>
<path d="M152.349 77.5961C152.242 77.7902 152.235 78.0106 152.329 78.2087C152.423 78.4068 152.61 78.5665 152.85 78.6526C153.09 78.7387 153.362 78.7442 153.607 78.6679C153.851 78.5915 154.049 78.4396 154.156 78.2455C155.213 76.2907 156.145 74.2928 156.947 72.2599C156.997 72.1398 157.011 72.0119 156.988 71.8867C156.965 71.7614 156.906 71.6423 156.816 71.539C156.667 71.3896 156.468 71.2787 156.242 71.2201C155.995 71.1661 155.732 71.1913 155.507 71.2907C155.282 71.39 155.113 71.5558 155.035 71.7533C154.213 73.7488 153.266 75.7235 152.349 77.5961Z" fill="#319795"/>
<path d="M80.7714 93.6362C80.7316 93.7361 80.7169 93.8414 80.7281 93.946C80.7393 94.0505 80.7763 94.1522 80.8368 94.245C80.8972 94.3377 80.98 94.4198 81.0803 94.4862C81.1805 94.5527 81.2962 94.6022 81.4205 94.6319C81.5448 94.6616 81.6752 94.6709 81.804 94.6591C81.9328 94.6474 82.0575 94.615 82.1707 94.5637C82.2838 94.5124 82.3832 94.4433 82.463 94.3605C82.5427 94.2777 82.6012 94.1829 82.635 94.0815C83.3121 91.9779 83.7329 89.8258 83.8914 87.6561C83.859 87.4777 83.7948 87.3042 83.7006 87.1408C83.5054 86.8911 83.2072 86.7808 83.0491 86.8619C82.92 86.8463 82.7882 86.853 82.6624 86.8816C82.5366 86.9101 82.4197 86.9599 82.3193 87.0276C82.2189 87.0953 82.1373 87.1794 82.0798 87.2744C82.0223 87.3693 81.9903 87.4731 81.9858 87.5787C81.7466 89.6172 81.3409 91.6408 80.7714 93.6362V93.6362Z" fill="#319795"/>
<path d="M70.2427 66.4539C72.4666 67.3273 74.4018 68.6163 75.8889 70.2147C75.9706 70.2941 76.0712 70.3595 76.1847 70.407C76.2981 70.4544 76.4222 70.4831 76.5496 70.4911C76.6769 70.4992 76.805 70.4866 76.9264 70.4541C77.0477 70.4215 77.1598 70.3696 77.256 70.3015C77.4327 70.1715 77.5458 69.9945 77.5747 69.8027C77.6036 69.6109 77.5464 69.4172 77.4136 69.2569C77.4009 69.2407 77.3807 69.2292 77.3576 69.225C77.3344 69.2208 77.3101 69.2242 77.2901 69.2345C75.6463 67.446 73.5097 65.9928 71.0499 64.9903C70.8103 64.9041 70.538 64.8986 70.2931 64.9749C70.0482 65.0513 69.8506 65.2032 69.7439 65.3973C69.6372 65.5915 69.63 65.8119 69.724 66.0101C69.818 66.2084 70.0055 66.3681 70.2452 66.4543L70.2427 66.4539Z" fill="#319795"/>
<path d="M79.5867 75.5005C80.5898 77.3787 81.265 79.3611 81.5927 81.3906C81.6564 81.5913 81.8077 81.7665 82.0188 81.8837C82.2298 82.0009 82.4862 82.0522 82.7406 82.028C82.8684 82.0098 82.9904 81.9712 83.0995 81.9143C83.2086 81.8575 83.3027 81.7836 83.3761 81.6969C83.4495 81.6103 83.5009 81.5127 83.5272 81.4099C83.5535 81.307 83.5542 81.201 83.5292 81.098C83.0595 78.9642 82.3318 76.8732 81.3566 74.8551L81.261 74.7327C81.1423 74.5747 80.954 74.4592 80.7341 74.4093C80.5142 74.3595 80.279 74.379 80.076 74.4641C79.8458 74.5531 79.6667 74.7104 79.5756 74.9033C79.4845 75.0962 79.4885 75.31 79.5867 75.5005Z" fill="#319795"/>
<path d="M71.6321 110.06L71.4365 109.809C71.3349 109.739 71.2167 109.686 71.0891 109.654C70.9614 109.621 70.827 109.61 70.6939 109.621C70.5607 109.632 70.4317 109.665 70.3146 109.717C70.1975 109.77 70.0948 109.841 70.0125 109.926C68.5204 111.481 66.6988 113.028 64.8771 114.575C64.7866 114.651 64.7153 114.739 64.6671 114.837C64.619 114.934 64.5951 115.039 64.5967 115.143C64.5983 115.248 64.6254 115.352 64.6765 115.448C64.7275 115.545 64.8016 115.632 64.8943 115.705C64.9871 115.778 65.0968 115.836 65.2171 115.875C65.3375 115.914 65.4661 115.933 65.5957 115.932C65.7253 115.93 65.8533 115.908 65.9724 115.867C66.0915 115.825 66.1994 115.765 66.2899 115.69C68.1678 114.201 69.9342 112.622 71.5797 110.962C71.699 110.833 71.7678 110.678 71.7771 110.517C71.7865 110.356 71.736 110.197 71.6321 110.06Z" fill="#319795"/>
<path d="M90.914 104.813C93.422 105.517 95.9903 106.072 98.5985 106.474C98.8478 106.482 99.0933 106.421 99.2951 106.302C99.4969 106.183 99.6433 106.012 99.7104 105.818C99.7428 105.724 99.7497 105.626 99.7306 105.53C99.7115 105.433 99.6669 105.342 99.5999 105.261C99.5101 105.164 99.3925 105.085 99.2571 105.033C99.1217 104.98 98.9725 104.955 98.8224 104.959C96.3296 104.532 93.8723 103.978 91.4651 103.302C91.2202 103.249 90.959 103.275 90.7375 103.376C90.5159 103.476 90.3515 103.643 90.2795 103.84C90.2074 104.037 90.2333 104.249 90.3517 104.43C90.4701 104.612 90.6716 104.749 90.9131 104.812L90.914 104.813Z" fill="#319795"/>
<path d="M76.7341 98.8596C77.2597 99.1157 77.658 99.3487 78.0568 99.5824C77.0455 101.423 75.8649 103.2 74.5251 104.897C74.4488 104.984 74.3951 105.082 74.3673 105.185C74.3394 105.289 74.338 105.396 74.3631 105.5C74.3882 105.604 74.4393 105.703 74.5132 105.79C74.5872 105.878 74.6824 105.952 74.7931 106.008C74.9038 106.065 75.0277 106.102 75.157 106.119C75.2864 106.135 75.4185 106.13 75.5454 106.104C75.6722 106.077 75.7911 106.03 75.8947 105.965C75.9983 105.9 76.0844 105.819 76.1478 105.726C77.4447 103.922 78.6599 102.16 79.6795 100.411C80.8939 101.088 82.1649 101.695 83.4833 102.23C83.7205 102.323 83.9931 102.34 84.2451 102.276C84.497 102.212 84.7093 102.072 84.838 101.886C84.9105 101.765 84.9436 101.632 84.9342 101.499C84.9249 101.366 84.8733 101.237 84.7845 101.124C84.6975 100.989 84.571 100.874 84.4161 100.788C82.1586 99.8277 79.9794 98.7512 77.8919 97.5653C77.6776 97.4481 77.4162 97.4015 77.1608 97.4349C76.9053 97.4682 76.6751 97.5791 76.5168 97.7449C76.435 97.828 76.3754 97.9239 76.3419 98.0266C76.3083 98.1293 76.3016 98.2364 76.322 98.3413C76.3424 98.4462 76.3897 98.5464 76.4606 98.6357C76.5316 98.7249 76.6247 98.8012 76.7341 98.8596V98.8596Z" fill="#319795"/>
<path d="M34.5245 132.945C34.4059 132.787 34.2178 132.672 33.9981 132.622C33.7785 132.572 33.5436 132.592 33.3408 132.676C32.2111 133.17 30.9528 133.639 29.8216 134.131C29.587 134.216 29.4039 134.373 29.3125 134.568C29.2211 134.763 29.229 134.979 29.3344 135.169C29.4398 135.359 29.634 135.507 29.8744 135.581C30.1149 135.654 30.3817 135.648 30.6163 135.562C31.746 135.069 33.0041 134.601 34.1348 134.108C34.3696 133.99 34.5404 133.804 34.6128 133.588C34.6851 133.372 34.6536 133.142 34.5245 132.945V132.945Z" fill="#319795"/>
<path d="M175.53 16.9004C175.53 19.8767 173.752 25.286 171.368 31.2132C171.004 32.119 170.622 33.0508 170.232 33.9739C166.364 43.1273 161.509 52.8071 159.697 56.3442C159.629 56.4766 159.526 56.5877 159.399 56.6654C159.272 56.7431 159.126 56.7842 158.977 56.7842C158.828 56.7842 158.682 56.7431 158.555 56.6654C158.427 56.5877 158.325 56.4766 158.257 56.3442C155.813 51.5563 147.775 35.5269 144.185 24.7602C143.66 23.2223 143.214 21.6588 142.85 20.0757C142.581 18.8419 142.425 17.7722 142.425 16.9095C142.424 12.5415 144.166 8.35199 147.27 5.26253C150.373 2.17307 154.583 0.436753 158.973 0.435548C163.363 0.434342 167.573 2.16835 170.678 5.2561C173.783 8.34386 175.528 12.5324 175.53 16.9004Z" fill="#319795"/>
<path d="M158.977 57.2162C158.748 57.2183 158.522 57.1553 158.327 57.0346C158.132 56.9139 157.976 56.7405 157.876 56.5346C155.483 51.8414 147.376 35.6831 143.778 24.8903C143.25 23.3375 142.802 21.7594 142.433 20.1618C142.139 18.816 142 17.7549 142 16.9003C142 7.58333 149.622 0 158.986 0C168.349 0 175.971 7.5747 175.971 16.8921C175.971 19.5838 174.558 24.4496 171.774 31.3681C171.367 32.3861 170.994 33.2919 170.638 34.1374C166.59 43.7142 161.544 53.7044 160.087 56.5341C159.983 56.739 159.825 56.9113 159.629 57.0317C159.433 57.1522 159.208 57.216 158.977 57.2162V57.2162ZM158.977 0.871821C150.09 0.871821 142.859 8.06691 142.859 16.9096C142.859 17.6946 142.997 18.7045 143.275 19.9809C143.632 21.5508 144.075 23.1002 144.601 24.6223C148.182 35.3546 156.255 51.4702 158.648 56.1461C158.679 56.2083 158.726 56.2607 158.785 56.2973C158.844 56.3339 158.912 56.3534 158.982 56.3534C159.051 56.3534 159.12 56.3339 159.179 56.2973C159.238 56.2607 159.285 56.2083 159.316 56.1461C160.764 53.3164 165.801 43.352 169.833 33.8016C170.189 32.9562 170.562 32.0589 170.97 31.0495C173.71 24.2341 175.097 19.4718 175.097 16.901C175.096 8.05782 167.865 0.871355 158.977 0.871355V0.871821Z" fill="#319795"/>
<path d="M158.979 27.1069C164.85 27.1069 169.609 22.3713 169.609 16.5296C169.609 10.688 164.85 5.95239 158.979 5.95239C153.108 5.95239 148.348 10.688 148.348 16.5296C148.348 22.3713 153.108 27.1069 158.979 27.1069Z" fill="white"/>
<path d="M158.977 20.4379C158.852 20.4373 158.729 20.41 158.615 20.3579C158.501 20.3058 158.4 20.2301 158.318 20.1359L154.989 16.2967C154.841 16.1236 154.768 15.8994 154.785 15.6729C154.803 15.4464 154.909 15.2359 155.081 15.087C155.254 14.9381 155.478 14.8629 155.706 14.8777C155.934 14.8925 156.147 14.9962 156.298 15.1662L158.899 18.1685L162.151 13.553C162.284 13.3687 162.485 13.2441 162.71 13.2065C162.935 13.1689 163.165 13.2211 163.352 13.352C163.538 13.4828 163.665 13.6816 163.705 13.905C163.745 14.1285 163.694 14.3585 163.564 14.5451L159.671 20.0666C159.595 20.1739 159.495 20.2624 159.38 20.3253C159.264 20.3881 159.135 20.4236 159.003 20.4289C159.003 20.4379 158.995 20.4379 158.977 20.4379Z" fill="#319795"/>
</svg>
